<?xml version="1.0" encoding="utf-8"?>
<!-- Svg Vector Icons : http://www.onlinewebfonts.com/icon -->
<!DOCTYPE svg PUBLIC "-//W3C//DTD SVG 1.1//EN" "http://www.w3.org/Graphics/SVG/1.1/DTD/svg11.dtd">
<svg version="1.1" xmlns="http://www.w3.org/2000/svg" xmlns:xlink="http://www.w3.org/1999/xlink" x="0px" y="0px" viewBox="0 0 256 256" enable-background="new 0 0 256 256" xml:space="preserve">
<metadata> Svg Vector Icons : http://www.onlinewebfonts.com/icon </metadata>
<g> <path fill="#eb5e30" d="M245.7,102.2c-2.8-25.6-23.4-46.2-49-49c-3.4-0.4-6.9-0.4-10.3-0.2c-8.4-25.2-32-42.5-59.4-42.5 c-27.3,0-50.8,17.3-59.3,42.4c-2.8-0.1-5.6,0-8.4,0.3c-25.6,2.8-46.2,23.4-49,49c-1.8,15.8,3.3,31.6,13.9,43.4 c8.2,9.2,19.2,15.3,31.1,17.6v64c0,10.1,8.2,18.3,18.3,18.3h109c10.1,0,18.3-8.2,18.3-18.3v-64c11.9-2.3,22.9-8.4,31.1-17.6 C242.4,133.9,247.4,118,245.7,102.2L245.7,102.2z M216.4,131.8c-6.6,7.4-16.1,11.6-26,11.6H180v81.3H160v-51h-20.7v51h-19.9v-51 H98.6v51H76v-81.4H65.6c-9.9,0-19.4-4.2-26-11.6c-6.7-7.5-9.8-17.2-8.7-27.3c1.8-16,14.7-28.9,30.7-30.7c10.1-1.1,19.8,2,27.3,8.7 c7.4,6.6,11.6,16.1,11.6,26h20.7c0-15.8-6.8-30.9-18.5-41.4c-4.4-3.9-9.3-7.1-14.6-9.4C94.3,42,109.5,31.3,127,31.3 c17.8,0,33.2,11,39.2,27.1c-4.7,2.2-9.1,5.1-13,8.6c-11.8,10.5-18.5,25.7-18.5,41.4h20.7c0-9.9,4.2-19.4,11.6-26 c7.5-6.7,17.2-9.8,27.3-8.7c16,1.8,28.9,14.7,30.7,30.7C226.2,114.6,223.1,124.3,216.4,131.8L216.4,131.8z"/></g>
</svg>