<svg width="43" height="43" viewBox="0 0 43 43" fill="none" xmlns="http://www.w3.org/2000/svg">
<path d="M7.79175 26.5604H9.2605C9.2605 25.9766 8.91475 25.448 8.3798 25.2144L7.79175 26.5604ZM35.2084 26.5604L34.6203 25.2144C34.0853 25.448 33.7397 25.9766 33.7397 26.5604H35.2084ZM28.8438 11.7084C28.8438 12.5195 29.5014 13.1771 30.3126 13.1771C31.1237 13.1771 31.7813 12.5195 31.7813 11.7084H28.8438ZM11.2188 11.7084C11.2188 12.5195 11.8764 13.1771 12.6876 13.1771C13.4987 13.1771 14.1563 12.5195 14.1563 11.7084H11.2188ZM25.4167 39.6146C24.6056 39.6146 23.948 40.2722 23.948 41.0834C23.948 41.8945 24.6056 42.5521 25.4167 42.5521V39.6146ZM17.5834 42.5521C18.3946 42.5521 19.0522 41.8945 19.0522 41.0834C19.0522 40.2722 18.3946 39.6146 17.5834 39.6146V42.5521ZM11.7084 6.32294C5.48945 6.32294 0.447998 11.3644 0.447998 17.5834H3.3855C3.3855 12.9867 7.1118 9.26044 11.7084 9.26044V6.32294ZM31.2917 9.26044C35.8883 9.26044 39.6147 12.9867 39.6147 17.5834H42.5522C42.5522 11.3644 37.5106 6.32294 31.2917 6.32294V9.26044ZM15.6251 39.6146C13.7372 39.6146 12.4691 39.6115 11.5231 39.4844C10.6194 39.3628 10.2327 39.1528 9.97748 38.8977L7.90036 40.9747C8.79232 41.8667 9.9023 42.2304 11.1317 42.3956C12.3189 42.5552 13.8203 42.5521 15.6251 42.5521V39.6146ZM6.323 33.25C6.323 35.0548 6.31988 36.5563 6.47949 37.7434C6.64479 38.9729 7.0084 40.0828 7.90036 40.9747L9.97748 38.8977C9.72227 38.6425 9.5123 38.2557 9.39081 37.3519C9.26361 36.4061 9.2605 35.1379 9.2605 33.25H6.323ZM33.7397 33.25C33.7397 35.1379 33.7365 36.4061 33.6094 37.3519C33.4878 38.2557 33.2779 38.6425 33.0227 38.8977L35.0997 40.9747C35.9917 40.0828 36.3554 38.9729 36.5207 37.7434C36.6803 36.5563 36.6772 35.0548 36.6772 33.25H33.7397ZM27.3751 42.5521C29.1799 42.5521 30.6813 42.5552 31.8685 42.3956C33.0979 42.2304 34.2079 41.8667 35.0997 40.9747L33.0227 38.8977C32.7675 39.1528 32.3808 39.3628 31.477 39.4844C30.5311 39.6115 29.2629 39.6146 27.3751 39.6146V42.5521ZM11.7084 9.26044C12.1269 9.26044 12.5373 9.2912 12.9377 9.35038L13.3672 6.44445C12.8251 6.36434 12.2711 6.32294 11.7084 6.32294V9.26044ZM21.5001 0.447937C16.9753 0.447937 13.1369 3.36997 11.7615 7.42571L14.5434 8.36912C15.5268 5.46914 18.272 3.38544 21.5001 3.38544V0.447937ZM11.7615 7.42571C11.4092 8.46441 11.2188 9.57608 11.2188 10.7292H14.1563C14.1563 9.90111 14.2928 9.10792 14.5434 8.36912L11.7615 7.42571ZM31.2917 6.32294C30.7291 6.32294 30.1751 6.36434 29.633 6.44445L30.0625 9.35038C30.4628 9.2912 30.8733 9.26044 31.2917 9.26044V6.32294ZM21.5001 3.38544C24.7282 3.38544 27.4734 5.46914 28.4569 8.36912L31.2387 7.42571C29.8633 3.36997 26.0248 0.447937 21.5001 0.447937V3.38544ZM28.4569 8.36912C28.7073 9.10792 28.8438 9.90111 28.8438 10.7292H31.7813C31.7813 9.57608 31.591 8.46441 31.2387 7.42571L28.4569 8.36912ZM9.2605 33.25V26.5604H6.323V33.25H9.2605ZM8.3798 25.2144C5.43722 23.9287 3.3855 20.994 3.3855 17.5834H0.447998C0.447998 22.2031 3.22981 26.1699 7.2037 27.9061L8.3798 25.2144ZM33.7397 26.5604V33.25H36.6772V26.5604H33.7397ZM39.6147 17.5834C39.6147 20.994 37.5629 23.9287 34.6203 25.2144L35.7965 27.9061C39.7704 26.1699 42.5522 22.2031 42.5522 17.5834H39.6147ZM28.8438 10.7292V11.7084H31.7813V10.7292H28.8438ZM11.2188 10.7292V11.7084H14.1563V10.7292H11.2188ZM27.3751 39.6146H25.4167V42.5521H27.3751V39.6146ZM17.5834 39.6146H15.6251V42.5521H17.5834V39.6146Z" fill="white"/>
<path d="M7.79175 33.25H23.4584M35.2084 33.25H31.2917" stroke="white" stroke-width="1.5" stroke-linecap="round" stroke-linejoin="round"/>
</svg>
